<svg width="317" height="69" viewBox="0 0 317 69" fill="none" xmlns="http://www.w3.org/2000/svg">
<g filter="url(#filter0_d_103_694)">
<rect x="10" y="10" width="297" height="49" rx="10" fill="#5267D0"/>
</g>
<path d="M152.968 43H150.522L156.018 27.7273H158.68L164.176 43H161.73L157.413 30.5014H157.293L152.968 43ZM153.378 37.0192H161.313V38.9581H153.378V37.0192ZM170.306 43.2237C169.382 43.2237 168.556 42.9876 167.831 42.5153C167.11 42.038 166.543 41.3594 166.13 40.4794C165.723 39.5945 165.519 38.533 165.519 37.2951C165.519 36.0572 165.725 34.9982 166.138 34.1183C166.555 33.2383 167.127 32.5646 167.853 32.0973C168.579 31.63 169.402 31.3963 170.321 31.3963C171.032 31.3963 171.604 31.5156 172.037 31.7543C172.474 31.9879 172.812 32.2614 173.051 32.5746C173.294 32.8878 173.483 33.1637 173.618 33.4023H173.752V27.7273H175.982V43H173.804V41.2177H173.618C173.483 41.4613 173.289 41.7397 173.036 42.0529C172.787 42.3661 172.444 42.6396 172.007 42.8732C171.569 43.1069 171.002 43.2237 170.306 43.2237ZM170.799 41.3221C171.44 41.3221 171.982 41.1531 172.424 40.815C172.872 40.4719 173.21 39.9972 173.439 39.3906C173.672 38.7841 173.789 38.0781 173.789 37.2727C173.789 36.4773 173.675 35.7812 173.446 35.1847C173.217 34.5881 172.882 34.1232 172.439 33.7901C171.997 33.457 171.45 33.2905 170.799 33.2905C170.127 33.2905 169.568 33.4645 169.121 33.8125C168.673 34.1605 168.335 34.6353 168.107 35.2369C167.883 35.8384 167.771 36.517 167.771 37.2727C167.771 38.0384 167.885 38.7269 168.114 39.3384C168.343 39.9499 168.681 40.4347 169.128 40.7926C169.581 41.1456 170.137 41.3221 170.799 41.3221ZM183.452 43.2237C182.527 43.2237 181.702 42.9876 180.976 42.5153C180.255 42.038 179.688 41.3594 179.276 40.4794C178.868 39.5945 178.664 38.533 178.664 37.2951C178.664 36.0572 178.871 34.9982 179.283 34.1183C179.701 33.2383 180.273 32.5646 180.998 32.0973C181.724 31.63 182.547 31.3963 183.467 31.3963C184.178 31.3963 184.75 31.5156 185.182 31.7543C185.62 31.9879 185.958 32.2614 186.196 32.5746C186.44 32.8878 186.629 33.1637 186.763 33.4023H186.897V27.7273H189.127V43H186.949V41.2177H186.763C186.629 41.4613 186.435 41.7397 186.181 42.0529C185.933 42.3661 185.59 42.6396 185.152 42.8732C184.715 43.1069 184.148 43.2237 183.452 43.2237ZM183.944 41.3221C184.585 41.3221 185.127 41.1531 185.57 40.815C186.017 40.4719 186.355 39.9972 186.584 39.3906C186.818 38.7841 186.935 38.0781 186.935 37.2727C186.935 36.4773 186.82 35.7812 186.592 35.1847C186.363 34.5881 186.027 34.1232 185.585 33.7901C185.142 33.457 184.595 33.2905 183.944 33.2905C183.273 33.2905 182.714 33.4645 182.266 33.8125C181.819 34.1605 181.481 34.6353 181.252 35.2369C181.028 35.8384 180.916 36.517 180.916 37.2727C180.916 38.0384 181.031 38.7269 181.259 39.3384C181.488 39.9499 181.826 40.4347 182.274 40.7926C182.726 41.1456 183.283 41.3221 183.944 41.3221Z" fill="white"/>
<path d="M131.6 34.9994H128M128 34.9994H124.4M128 34.9994V38.5994M128 34.9994L128 31.3994M137.6 28.9999L137.6 41C137.6 42.9882 135.988 44.6 134 44.6H122C120.012 44.6 118.4 42.9882 118.4 41V28.9999C118.4 27.0117 120.012 25.3999 122 25.3999H134C135.988 25.3999 137.6 27.0117 137.6 28.9999Z" stroke="white" stroke-width="2" stroke-linecap="round"/>
<defs>
<filter id="filter0_d_103_694" x="0" y="0" width="317" height="69" filterUnits="userSpaceOnUse" color-interpolation-filters="sRGB">
<feFlood flood-opacity="0" result="BackgroundImageFix"/>
<feColorMatrix in="SourceAlpha" type="matrix" values="0 0 0 0 0 0 0 0 0 0 0 0 0 0 0 0 0 0 127 0" result="hardAlpha"/>
<feOffset/>
<feGaussianBlur stdDeviation="5"/>
<feComposite in2="hardAlpha" operator="out"/>
<feColorMatrix type="matrix" values="0 0 0 0 0 0 0 0 0 0 0 0 0 0 0 0 0 0 0.05 0"/>
<feBlend mode="normal" in2="BackgroundImageFix" result="effect1_dropShadow_103_694"/>
<feBlend mode="normal" in="SourceGraphic" in2="effect1_dropShadow_103_694" result="shape"/>
</filter>
</defs>
</svg>
